<mxfile host="app.diagrams.net" modified="2024-06-20T09:06:19.383Z" agent="Mozilla/5.0 (X11; Linux x86_64; rv:127.0) Gecko/20100101 Firefox/127.0" version="24.5.5" etag="mZYVsCLLhYVn6yu7UZ8T" type="github">
  <diagram name="Страница — 1" id="PjyD2JnUd0CSxiQ4_8Hl">
    <mxGraphModel>
      <root>
        <mxCell id="0" />
        <mxCell id="1" parent="0" />
      </root>
    </mxGraphModel>
  </diagram>
</mxfile>
